<svg width="24" height="23" viewBox="0 0 24 23" fill="none" xmlns="http://www.w3.org/2000/svg">
<path d="M19.7892 6.73907C21.8389 3.8695 9.13086 12.0683 9.13086 12.0683L9.5408 15.3478V18.2173L10.3607 21.0869C10.9073 20.9502 12.4923 20.349 14.4601 19.0372V18.6273V17.3975V16.5776V16.1676V15.7577V14.5279V13.708V12.8881L14.87 12.4782L15.6899 11.2484L17.7396 9.1987C17.7396 9.1987 17.7396 9.60863 19.7892 6.73907Z" fill="#0A9EDF"/>
<path d="M20.9678 1H3.03301C2.3255 1 1.75195 1.56013 1.75195 2.25109V4.23505C1.75195 4.56686 1.88692 4.88507 2.12717 5.1197L9.06308 11.8934C9.30332 12.128 9.43829 12.4462 9.43829 12.778V20.2442C9.43829 21.1742 10.4405 21.7791 11.2922 21.3632L13.8544 20.1121C14.2884 19.9002 14.5625 19.467 14.5625 18.9931V12.778C14.5625 12.4462 14.6975 12.128 14.9377 11.8934L21.8736 5.1197C22.1139 4.88507 22.2488 4.56686 22.2488 4.23505V2.25109C22.2488 1.56013 21.6753 1 20.9678 1Z" stroke="#0A9EDF" stroke-width="1.63975" stroke-linecap="round" stroke-linejoin="round"/>
</svg>
